<svg width="78" height="38" viewBox="0 0 78 38" fill="none" xmlns="http://www.w3.org/2000/svg">
<line y1="-2" x2="18.7902" y2="-2" transform="matrix(-0.849676 -0.527304 0.775414 -0.631454 54.9184 9.9082)" stroke="white" stroke-width="4"/>
<line y1="-2" x2="18.7902" y2="-2" transform="matrix(0.849677 -0.527304 -0.775414 -0.631454 23.0816 9.91663)" stroke="white" stroke-width="4"/>
<path d="M0.945 32.25V20.1H3.735C4.285 20.1 4.76 20.16 5.16 20.28C5.57 20.4 5.91 20.585 6.18 20.835C6.45 21.085 6.65 21.405 6.78 21.795C6.91 22.175 6.975 22.625 6.975 23.145C6.975 23.645 6.91 24.08 6.78 24.45C6.66 24.81 6.47 25.095 6.21 25.305C5.96 25.515 5.635 25.65 5.235 25.71C5.725 25.82 6.12 26.01 6.42 26.28C6.72 26.54 6.94 26.88 7.08 27.3C7.23 27.71 7.305 28.205 7.305 28.785C7.305 29.305 7.245 29.78 7.125 30.21C7.005 30.64 6.815 31.005 6.555 31.305C6.305 31.605 5.98 31.84 5.58 32.01C5.19 32.17 4.725 32.25 4.185 32.25H0.945ZM2.64 31.035H3.78C4.54 31.035 5.045 30.86 5.295 30.51C5.555 30.15 5.685 29.575 5.685 28.785C5.685 28.275 5.615 27.85 5.475 27.51C5.345 27.16 5.13 26.9 4.83 26.73C4.54 26.55 4.145 26.46 3.645 26.46H2.64V31.035ZM2.64 25.17H3.645C4.125 25.17 4.5 25.105 4.77 24.975C5.04 24.835 5.23 24.615 5.34 24.315C5.45 24.015 5.505 23.625 5.505 23.145C5.505 22.585 5.42 22.18 5.25 21.93C5.08 21.68 4.815 21.525 4.455 21.465C4.095 21.395 3.625 21.36 3.045 21.36H2.64V25.17ZM8.13656 32.25L10.7166 20.1H12.3516L14.9466 32.25H13.3416L12.7866 29.19H10.3116L9.72656 32.25H8.13656ZM10.5366 27.975H12.5616L11.5416 22.5L10.5366 27.975ZM19.1511 32.385C18.2911 32.385 17.6211 32.205 17.1411 31.845C16.6711 31.485 16.3411 31 16.1511 30.39C15.9711 29.78 15.8811 29.1 15.8811 28.35V24.06C15.8811 23.24 15.9711 22.525 16.1511 21.915C16.3411 21.305 16.6711 20.835 17.1411 20.505C17.6211 20.165 18.2911 19.995 19.1511 19.995C19.9111 19.995 20.5111 20.135 20.9511 20.415C21.4011 20.695 21.7211 21.095 21.9111 21.615C22.1111 22.135 22.2111 22.76 22.2111 23.49V24.45H20.6061V23.595C20.6061 23.145 20.5811 22.75 20.5311 22.41C20.4911 22.06 20.3711 21.79 20.1711 21.6C19.9711 21.41 19.6361 21.315 19.1661 21.315C18.6861 21.315 18.3361 21.42 18.1161 21.63C17.8961 21.83 17.7511 22.12 17.6811 22.5C17.6211 22.87 17.5911 23.305 17.5911 23.805V28.62C17.5911 29.23 17.6411 29.715 17.7411 30.075C17.8411 30.425 18.0061 30.675 18.2361 30.825C18.4661 30.975 18.7761 31.05 19.1661 31.05C19.6261 31.05 19.9561 30.95 20.1561 30.75C20.3561 30.54 20.4811 30.255 20.5311 29.895C20.5811 29.535 20.6061 29.115 20.6061 28.635V27.735H22.2111V28.635C22.2111 29.375 22.1211 30.03 21.9411 30.6C21.7611 31.16 21.4511 31.6 21.0111 31.92C20.5711 32.23 19.9511 32.385 19.1511 32.385ZM23.8259 32.25V20.1H25.5209V25.83L28.3109 20.1H29.8859L27.4859 25.455L30.2759 32.25H28.6259L26.3009 26.55L25.5209 27.96V32.25H23.8259ZM36.0154 32.25V21.36H33.9604V20.1H39.7054V21.36H37.7104V32.25H36.0154ZM43.9377 32.385C43.1177 32.385 42.4627 32.225 41.9727 31.905C41.4827 31.585 41.1327 31.13 40.9227 30.54C40.7127 29.94 40.6077 29.24 40.6077 28.44V23.835C40.6077 23.035 40.7127 22.35 40.9227 21.78C41.1427 21.2 41.4927 20.76 41.9727 20.46C42.4627 20.15 43.1177 19.995 43.9377 19.995C44.7577 19.995 45.4077 20.15 45.8877 20.46C46.3677 20.77 46.7127 21.21 46.9227 21.78C47.1427 22.35 47.2527 23.035 47.2527 23.835V28.455C47.2527 29.245 47.1427 29.935 46.9227 30.525C46.7127 31.115 46.3677 31.575 45.8877 31.905C45.4077 32.225 44.7577 32.385 43.9377 32.385ZM43.9377 31.05C44.3877 31.05 44.7277 30.96 44.9577 30.78C45.1877 30.59 45.3427 30.33 45.4227 30C45.5027 29.66 45.5427 29.265 45.5427 28.815V23.49C45.5427 23.04 45.5027 22.655 45.4227 22.335C45.3427 22.005 45.1877 21.755 44.9577 21.585C44.7277 21.405 44.3877 21.315 43.9377 21.315C43.4877 21.315 43.1427 21.405 42.9027 21.585C42.6727 21.755 42.5177 22.005 42.4377 22.335C42.3577 22.655 42.3177 23.04 42.3177 23.49V28.815C42.3177 29.265 42.3577 29.66 42.4377 30C42.5177 30.33 42.6727 30.59 42.9027 30.78C43.1427 30.96 43.4877 31.05 43.9377 31.05ZM53.6814 32.25V21.36H51.6264V20.1H57.3714V21.36H55.3764V32.25H53.6814ZM61.6037 32.385C60.7837 32.385 60.1287 32.225 59.6387 31.905C59.1487 31.585 58.7987 31.13 58.5887 30.54C58.3787 29.94 58.2737 29.24 58.2737 28.44V23.835C58.2737 23.035 58.3787 22.35 58.5887 21.78C58.8087 21.2 59.1587 20.76 59.6387 20.46C60.1287 20.15 60.7837 19.995 61.6037 19.995C62.4237 19.995 63.0737 20.15 63.5537 20.46C64.0337 20.77 64.3787 21.21 64.5887 21.78C64.8087 22.35 64.9187 23.035 64.9187 23.835V28.455C64.9187 29.245 64.8087 29.935 64.5887 30.525C64.3787 31.115 64.0337 31.575 63.5537 31.905C63.0737 32.225 62.4237 32.385 61.6037 32.385ZM61.6037 31.05C62.0537 31.05 62.3937 30.96 62.6237 30.78C62.8537 30.59 63.0087 30.33 63.0887 30C63.1687 29.66 63.2087 29.265 63.2087 28.815V23.49C63.2087 23.04 63.1687 22.655 63.0887 22.335C63.0087 22.005 62.8537 21.755 62.6237 21.585C62.3937 21.405 62.0537 21.315 61.6037 21.315C61.1537 21.315 60.8087 21.405 60.5687 21.585C60.3387 21.755 60.1837 22.005 60.1037 22.335C60.0237 22.655 59.9837 23.04 59.9837 23.49V28.815C59.9837 29.265 60.0237 29.66 60.1037 30C60.1837 30.33 60.3387 30.59 60.5687 30.78C60.8087 30.96 61.1537 31.05 61.6037 31.05ZM66.5846 32.25V20.1H69.5996C70.3296 20.1 70.9096 20.235 71.3396 20.505C71.7796 20.765 72.0996 21.145 72.2996 21.645C72.4996 22.145 72.5996 22.75 72.5996 23.46C72.5996 24.1 72.4846 24.655 72.2546 25.125C72.0346 25.595 71.7046 25.96 71.2646 26.22C70.8246 26.47 70.2746 26.595 69.6146 26.595H68.2796V32.25H66.5846ZM68.2796 25.38H69.0596C69.5496 25.38 69.9346 25.325 70.2146 25.215C70.4946 25.105 70.6946 24.915 70.8146 24.645C70.9346 24.365 70.9946 23.975 70.9946 23.475C70.9946 22.895 70.9496 22.45 70.8596 22.14C70.7796 21.83 70.6046 21.615 70.3346 21.495C70.0646 21.375 69.6446 21.315 69.0746 21.315H68.2796V25.38Z" fill="white"/>
</svg>
