<svg width="39" height="39" viewBox="0 0 39 39" fill="none" xmlns="http://www.w3.org/2000/svg">
<path d="M19.3426 0C8.66008 0 0 8.69207 0 19.4141C0 28.5185 6.24535 36.1583 14.6702 38.2566V25.347H10.6818V19.4141H14.6702V16.8576C14.6702 10.2499 17.6498 7.18709 24.1133 7.18709C25.3389 7.18709 27.4534 7.4286 28.3184 7.66934V13.047C27.8619 12.9989 27.0689 12.9748 26.0839 12.9748C22.9125 12.9748 21.687 14.1808 21.687 17.3158V19.4141H28.005L26.9195 25.347H21.687V38.686C31.2647 37.5251 38.686 29.3401 38.686 19.4141C38.6853 8.69207 30.0252 0 19.3426 0Z" fill="#59B9F5"/>
</svg>
