<svg width="393" height="122" viewBox="0 0 393 122" fill="none" xmlns="http://www.w3.org/2000/svg">
<rect y="34" width="393" height="10" fill="#FFB575"/>
<rect x="281" y="65" width="172" height="64" rx="32" transform="rotate(-180 281 65)" fill="#FFB575"/>
<path d="M318.284 34.7152L324 34.7152C324 34.7152 321.741 34.7639 318.284 34.7152L276.584 34.7152L276 16.9999C277.531 17.4665 278.224 21.028 283.878 28.2428C288.085 33.6104 308.239 34.5738 318.284 34.7152Z" fill="#FFB575"/>
<path d="M314.284 44.7152L320 44.7152C320 44.7152 317.741 44.7639 314.284 44.7152L272.584 44.7152L272 26.9999C273.531 27.4665 274.224 31.028 279.878 38.2428C284.085 43.6104 304.239 44.5738 314.284 44.7152Z" fill="#F28057"/>
<rect x="277" y="81.5" width="164" height="72.5" rx="35" transform="rotate(-180 277 81.5)" fill="#F28057"/>
<rect y="44" width="393" height="10" fill="#F28056"/>
<rect y="54" width="393" height="68" fill="#C42345"/>
<rect x="269" y="84.3098" width="147" height="66.3098" rx="30" transform="rotate(-180 269 84.3098)" fill="#C42345"/>
<path d="M308.284 54.7152L314 54.7152C314 54.7152 311.741 54.7639 308.284 54.7152L266.584 54.7152L266 36.9999C267.531 37.4665 268.224 41.028 273.878 48.2428C278.085 53.6104 298.239 54.5738 308.284 54.7152Z" fill="#C42345"/>
<path d="M71.7161 34.7153L66 34.7153C66 34.7153 68.2594 34.764 71.7161 34.7153L113.416 34.7153L114 17C112.469 17.4666 111.776 21.0282 106.122 28.243C101.915 33.6106 81.7607 34.5739 71.7161 34.7153Z" fill="#FFB575"/>
<path d="M75.7161 44.7153L70 44.7153C70 44.7153 72.2594 44.764 75.7161 44.7153L117.416 44.7153L118 27C116.469 27.4666 115.776 31.0282 110.122 38.243C105.915 43.6106 85.7607 44.5739 75.7161 44.7153Z" fill="#F28057"/>
<path d="M82.7161 54.7153L77 54.7153C77 54.7153 79.2594 54.764 82.7161 54.7153L124.416 54.7153L125 37C123.469 37.4666 122.776 41.0282 117.122 48.243C112.915 53.6106 92.7607 54.5739 82.7161 54.7153Z" fill="#C42345"/>
</svg>
