<svg width="1080" height="416" viewBox="0 0 1080 416" fill="none" xmlns="http://www.w3.org/2000/svg">
<path d="M132.108 180.354C134.263 170.575 147.043 161.947 153.739 153.542C166.324 137.744 179.651 122.085 192.917 106.552C200.497 97.6756 209.07 89.0493 219.251 81.4183C224.365 77.5843 221.124 82.6732 220.694 85.9892C215.132 128.884 207.286 169.533 193.959 211.042C184.224 241.365 175.256 271.539 171.2 302.822" stroke="white" stroke-width="8" stroke-linecap="round"/>
<path d="M20.3703 123.525C28.0931 124.526 35.3487 122.447 42.6622 121.711C83.2157 117.628 124.1 113.186 164.985 109.987C200.535 107.204 236.985 106.013 272.937 104.418C289.712 103.673 308.025 101.162 325.325 103.406" stroke="white" stroke-width="8" stroke-linecap="round"/>
<path d="M230.558 127.684C229.65 134.687 235.306 142.207 236.742 149.336C237.771 154.442 239.639 159.563 240.354 164.666C240.397 164.972 239.845 171.553 241.841 170.205C247.536 166.359 251.091 157.614 255.475 152.727C260.88 146.703 266.59 140.638 272.361 135.029" stroke="white" stroke-width="8" stroke-linecap="round"/>
<path d="M310.121 126.454C296.23 125.633 289.448 144.569 288.623 150.931C288.332 153.175 283.786 165.155 289.704 166.147C295.669 167.146 301.615 168.432 305.27 165.172C313.85 157.518 328.356 150.693 329.673 140.536C330.849 131.466 326.451 132.019 316.128 127.233" stroke="white" stroke-width="8" stroke-linecap="round"/>
<path d="M358.423 130.792C357.41 138.601 358.18 148.003 354.565 155.311C352.278 159.933 347.892 164.898 347.262 169.761" stroke="white" stroke-width="8" stroke-linecap="round"/>
<path d="M391.707 133.183C390.745 140.598 393.985 165.48 381.282 166.474" stroke="white" stroke-width="8" stroke-linecap="round"/>
<path d="M373.276 125.366C385.529 126.955 449.521 129.367 426.204 144.308C419.592 148.544 415.5 154.095 407.141 157.385C401.41 159.641 395.79 161.965 390.432 164.561C385.196 167.098 376.002 171.243 372.619 174.531" stroke="white" stroke-width="8" stroke-linecap="round"/>
<path d="M527.724 124.972C531.46 140.354 527.45 156.488 525.499 171.531" stroke="white" stroke-width="8" stroke-linecap="round"/>
<path d="M485.41 127.894C492.643 128.576 499.741 126.759 506.61 126.105C523.299 124.516 539.884 122.611 556.605 121.11C575.573 119.406 595.34 119.681 614.38 118.19" stroke="white" stroke-width="8" stroke-linecap="round"/>
<path d="M566.785 132.439C565.821 139.876 568.169 166.238 556.412 168.332" stroke="white" stroke-width="8" stroke-linecap="round"/>
<path d="M572.139 149.951C577.614 150.661 594.346 152.115 596.968 149.567" stroke="white" stroke-width="8" stroke-linecap="round"/>
<path d="M598.96 134.209C606.138 139.548 600.502 151.72 599.68 158.059C599.004 163.266 598.329 168.473 597.654 173.68" stroke="white" stroke-width="8" stroke-linecap="round"/>
<path d="M632.856 137.403C629.513 144.97 625.197 152.448 622.398 160.071C621.977 161.219 619.027 168.545 619.645 169.057C624.361 172.959 643.423 169.165 646.8 168.707C666.727 166.004 687.777 166.254 707.571 163.908" stroke="white" stroke-width="8" stroke-linecap="round"/>
<path d="M633.046 150.641C647.324 152.492 660.844 147.038 675.207 148.9" stroke="white" stroke-width="8" stroke-linecap="round"/>
<path d="M634.884 136.465C655.31 137.672 676.759 132.798 696.557 131.248" stroke="white" stroke-width="8" stroke-linecap="round"/>
<path d="M784.744 112.653C783.501 122.245 780.771 131.882 777.042 141.017C772.828 151.342 765.065 161.52 763.657 172.382" stroke="white" stroke-width="8" stroke-linecap="round"/>
<path d="M736.501 117.208C744.888 118.296 752.692 115.782 760.718 115.01C783.698 112.798 807.629 109.02 831.046 108.38C836.14 108.241 844.638 109.344 849.153 108.392C852.832 107.616 855.704 106.238 859.846 106.775" stroke="white" stroke-width="8" stroke-linecap="round"/>
<path d="M748.587 141.599C775.287 145.061 799.719 130.211 825.87 133.601" stroke="white" stroke-width="8" stroke-linecap="round"/>
<path d="M834.63 139.542C833.751 146.324 832.871 153.106 831.992 159.888C831.302 165.206 830.414 170.812 842.286 168.697C861.012 165.361 863.15 154.795 864.624 143.431" stroke="white" stroke-width="8" stroke-linecap="round"/>
<path d="M882.794 165.007C883.89 156.551 881.161 148.197 882.261 139.712C882.925 134.591 900.92 150.295 903.436 152.001C908.064 155.139 913.565 162.903 914.422 156.295C915.321 149.361 914.314 142.426 915.202 135.575" stroke="white" stroke-width="8" stroke-linecap="round"/>
<path d="M934.868 130.918C933.429 142.014 933.891 153.148 932.453 164.239" stroke="white" stroke-width="8" stroke-linecap="round"/>
<path d="M982.652 129.907C978.662 129.671 974.289 132.411 971.644 133.951C966.102 137.179 957.933 139.881 950.563 141.361C943.846 142.71 925.264 145.425 943.042 148.728C965.723 152.942 987.816 156.457 1010.73 159.975C1015.41 160.692 1020.34 163.552 1026.05 164.363C1031.59 165.15 1037.16 165.804 1042.71 166.524" stroke="white" stroke-width="8" stroke-linecap="round"/>
<path d="M1074.89 168.293C1069.39 171.172 1067 175.874 1062.05 179.108C1058.96 181.122 1055.58 182.089 1053.69 184.764" stroke="white" stroke-width="8" stroke-linecap="round"/>
<path d="M267.443 206.539C263.095 205.623 255.62 201.753 251.579 204.749C242.353 211.589 241.279 220.972 242.43 230.39C243.292 237.447 250.423 254.444 264.005 246.935C267.775 244.851 272.993 237.237 273.446 233.744" stroke="white" stroke-width="8" stroke-linecap="round"/>
<path d="M288.217 208.032C287.773 211.46 287.882 214.444 288.416 217.934C288.982 221.627 291.313 226.19 291.135 229.631C291.021 231.844 294.991 246.211 300.962 238.78C308.081 229.921 311.974 214.48 305.855 204.312" stroke="white" stroke-width="8" stroke-linecap="round"/>
<path d="M326.476 206.986C326.696 206.331 345.248 204.616 347.709 204.935C351.649 205.446 338.191 224.742 335.324 226.953C331.14 230.178 330.207 234.581 325.486 237.489C320.767 240.395 333.458 237.84 334.344 237.77C344.203 236.999 354.066 234.588 364.654 235.961" stroke="white" stroke-width="8" stroke-linecap="round"/>
<path d="M432.644 196.728C431.626 204.576 429.803 212.495 429.676 220.435C429.586 225.998 431.895 231.904 431.185 237.381" stroke="white" stroke-width="8" stroke-linecap="round"/>
<path d="M449.209 201.279C458.618 201.065 465.994 200.609 475.233 199.848C480.568 199.409 485.907 198.83 491.37 199.538" stroke="white" stroke-width="8" stroke-linecap="round"/>
<path d="M464.512 200.861C463.736 206.849 466.701 213.382 465.887 219.658C465.337 223.901 463.744 228.301 466.153 232.305" stroke="white" stroke-width="8" stroke-linecap="round"/>
<path d="M515.856 187.098C521.151 191.987 514.419 198.182 513.865 202.455" stroke="white" stroke-width="8" stroke-linecap="round"/>
<path d="M545.85 190.987C544.968 193.806 529.804 205.427 538.082 206.797C544.237 207.815 552.998 209.366 552.313 214.648C551.653 219.74 552.138 225.106 543.163 226.408C535.937 227.457 516.074 229.056 513.289 221.6" stroke="white" stroke-width="8" stroke-linecap="round"/>
<path d="M638.932 193.447C630.843 180.821 614.329 193.943 611.298 199.941C606.236 209.956 608.666 215.335 620.25 223.19C623.084 225.112 632.755 224.937 635.783 224.27C643.216 222.634 645.474 215.584 650.666 212.386C663.997 204.176 635.814 204.497 633.038 209.5" stroke="white" stroke-width="8" stroke-linecap="round"/>
<path d="M679.218 191.463C668.657 190.931 670.361 211.845 676.997 215.133C690.22 221.685 704.726 215.127 709.139 207.355C713.104 200.371 717.677 190.444 701.543 188.352C690.401 186.907 686.568 188.423 677.497 190.039" stroke="white" stroke-width="8" stroke-linecap="round"/>
<path d="M731.744 212.689C731.258 204.489 727.388 196.29 729.184 188.332C729.431 187.239 750.78 202.389 755.202 204.919C760.552 207.981 763.934 212.849 762.735 205.629C761.572 198.627 759.031 193.356 759.944 186.315" stroke="white" stroke-width="8" stroke-linecap="round"/>
<path d="M789.208 210.53C788.84 202.454 777.125 194.672 778.996 186.383C779.864 182.54 789.417 191.405 790.836 192.256C796.962 195.931 802.38 200.079 808.174 203.914C810.898 205.716 813.119 207.539 815.615 209.417C819.858 212.608 817.233 203.282 816.985 202.12C815.489 195.103 811.203 187.91 812.09 181.065" stroke="white" stroke-width="8" stroke-linecap="round"/>
<path d="M837.3 207.156C837.737 203.784 840.148 176.469 847.682 178.539C853.897 180.246 861.451 188.281 864.92 191.785C867.137 194.025 881.143 203.385 877.739 203.991" stroke="white" stroke-width="8" stroke-linecap="round"/>
<path d="M838.831 195.343C846.555 195.799 854.741 192.575 862.161 191.828C870.96 190.942 878.695 187.935 887.535 187.243" stroke="white" stroke-width="8" stroke-linecap="round"/>
<path d="M389.556 264.416C384.667 263.782 374.417 259.809 370.776 262.247C364.129 266.698 365.44 273.995 364.644 280.138C363.519 288.809 375.243 293.791 386.511 295.252C402.86 297.372 399.303 284.732 407.546 280.028C411.235 277.924 400.213 276.608 398.488 276.385C393.304 275.713 390.454 276.373 385.996 277.167" stroke="white" stroke-width="8" stroke-linecap="round"/>
<path d="M426.093 261.946C424.938 270.858 423.859 280.296 426.509 288.961C427.686 292.811 476.004 288.81 478.16 286.716" stroke="white" stroke-width="8" stroke-linecap="round"/>
<path d="M422.687 273.516C435.736 275.208 449.781 272.667 462.82 272.714" stroke="white" stroke-width="8" stroke-linecap="round"/>
<path d="M410.943 261.182C426.494 263.199 449.659 260.771 462.937 257.113" stroke="white" stroke-width="8" stroke-linecap="round"/>
<path d="M478.086 257.877C497.745 260.426 514.772 258.124 533.523 256.657" stroke="white" stroke-width="8" stroke-linecap="round"/>
<path d="M500.429 261.975C499.856 266.388 502.988 270.128 502.646 274.275C502.237 279.235 502.351 282.7 504.71 287.756" stroke="white" stroke-width="8" stroke-linecap="round"/>
<path d="M569.257 245.674C573.54 249.629 577.397 257.541 585.688 258.616C593.506 259.63 606.45 241.799 608.435 237.541" stroke="white" stroke-width="8" stroke-linecap="round"/>
<path d="M588.806 256.618C587.898 263.622 585.225 269.53 584.327 276.458" stroke="white" stroke-width="8" stroke-linecap="round"/>
<path d="M625.802 250.604C615.667 250.005 609.525 266.395 612.607 271.516C616.298 277.648 632.864 269.998 637.613 268.952C644.843 267.361 644.316 254.828 644.855 250.672C645.506 245.649 633.364 244.287 630.011 247.546" stroke="white" stroke-width="8" stroke-linecap="round"/>
<path d="M661.078 243.166C660.315 249.044 654.608 274.645 674.613 271.081C687.647 268.759 684.643 252.53 685.601 245.145" stroke="white" stroke-width="8" stroke-linecap="round"/>
<path d="M720.336 271.27C724.242 269.198 723.836 263.941 725.914 260.916C729.356 255.908 731.994 250.638 735.923 245.797C739.574 241.299 742.72 233.383 748.116 230.161C750.694 228.622 752.092 227.38 753.672 231.415C757.255 240.561 761.252 249.795 764.812 259.019C769.827 272.009 777.287 286.965 787.246 299.166" stroke="white" stroke-width="8" stroke-linecap="round"/>
<path d="M737.937 253.132C744.32 253.509 753.574 250.923 759.323 249.899" stroke="white" stroke-width="8" stroke-linecap="round"/>
<path d="M782.469 262.51C783.236 256.594 777.168 249.8 775.429 244.112C773.819 238.846 795.81 253.319 796.936 253.841C805.631 257.874 810.973 262.45 810.243 253.298C810.032 250.653 810.46 234.787 807.225 233.287" stroke="white" stroke-width="8" stroke-linecap="round"/>
<path d="M824.556 231.931C829.451 232.565 840.877 246.474 843.901 244.449C848.288 241.511 848.887 229.327 853.595 228.489" stroke="white" stroke-width="8" stroke-linecap="round"/>
<path d="M843.339 248.781C842.817 252.805 840.382 258.164 843.529 262.019" stroke="white" stroke-width="8" stroke-linecap="round"/>
<path d="M868.286 232.796C868.111 236.614 869.526 258.643 879.186 258.167C884.738 257.894 892.116 234.46 893.721 235.093C896.999 236.387 902.024 242.519 904.859 244.746C905.939 245.594 916.824 251.496 915.384 248.513C910.718 238.85 914.782 227.018 916.034 217.366" stroke="white" stroke-width="8" stroke-linecap="round"/>
<path d="M936.727 248.878C937.351 244.065 937.975 239.252 938.6 234.439C939.093 230.633 942.084 228.027 944.518 224.729C946.067 222.632 945.761 218.54 948.897 217.089C949.033 217.026 959.533 228.876 960.522 230.342C963.847 235.27 972.253 238.857 973.571 244.046" stroke="white" stroke-width="8" stroke-linecap="round"/>
<path d="M941.855 238.732C948.327 238.175 959.876 236.706 963.549 233.136" stroke="white" stroke-width="8" stroke-linecap="round"/>
<path d="M965.693 216.597C977.123 218.079 986.018 225.239 996.796 226.636" stroke="white" stroke-width="8" stroke-linecap="round"/>
<path d="M995.65 206.067C1002.42 211.668 1000.89 223.046 1001.23 229.213C1002.24 247.792 1000.14 266.454 1002.57 285.043" stroke="white" stroke-width="8" stroke-linecap="round"/>
</svg>
