<svg width="40" height="40" viewBox="0 0 40 40" fill="none" xmlns="http://www.w3.org/2000/svg">
<circle cx="20" cy="20" r="20" fill="#FF7AEF"/>
<g clip-path="url(#clip0_177_804)">
<path d="M20 7.70117C24.0078 7.70117 24.4824 7.71875 26.0586 7.78906C27.5234 7.85352 28.3145 8.09961 28.8418 8.30469C29.5391 8.57422 30.043 8.90234 30.5645 9.42383C31.0918 9.95117 31.4141 10.4492 31.6836 11.1465C31.8887 11.6738 32.1348 12.4707 32.1992 13.9297C32.2695 15.5117 32.2871 15.9863 32.2871 19.9883C32.2871 23.9961 32.2695 24.4707 32.1992 26.0469C32.1348 27.5117 31.8887 28.3027 31.6836 28.8301C31.4141 29.5273 31.0859 30.0313 30.5645 30.5527C30.0371 31.0801 29.5391 31.4023 28.8418 31.6719C28.3145 31.877 27.5176 32.123 26.0586 32.1875C24.4766 32.2578 24.002 32.2754 20 32.2754C15.9922 32.2754 15.5176 32.2578 13.9414 32.1875C12.4766 32.123 11.6855 31.877 11.1582 31.6719C10.4609 31.4023 9.95703 31.0742 9.43555 30.5527C8.9082 30.0254 8.58594 29.5273 8.31641 28.8301C8.11133 28.3027 7.86523 27.5059 7.80078 26.0469C7.73047 24.4648 7.71289 23.9902 7.71289 19.9883C7.71289 15.9805 7.73047 15.5059 7.80078 13.9297C7.86523 12.4648 8.11133 11.6738 8.31641 11.1465C8.58594 10.4492 8.91406 9.94531 9.43555 9.42383C9.96289 8.89648 10.4609 8.57422 11.1582 8.30469C11.6855 8.09961 12.4824 7.85352 13.9414 7.78906C15.5176 7.71875 15.9922 7.70117 20 7.70117ZM20 5C15.9277 5 15.418 5.01758 13.8184 5.08789C12.2246 5.1582 11.1289 5.41602 10.1797 5.78516C9.18945 6.17187 8.35156 6.68164 7.51953 7.51953C6.68164 8.35156 6.17188 9.18945 5.78516 10.1738C5.41602 11.1289 5.1582 12.2187 5.08789 13.8125C5.01758 15.418 5 15.9277 5 20C5 24.0723 5.01758 24.582 5.08789 26.1816C5.1582 27.7754 5.41602 28.8711 5.78516 29.8203C6.17188 30.8105 6.68164 31.6484 7.51953 32.4805C8.35156 33.3125 9.18945 33.8281 10.1738 34.209C11.1289 34.5781 12.2188 34.8359 13.8125 34.9062C15.4121 34.9766 15.9219 34.9941 19.9941 34.9941C24.0664 34.9941 24.5762 34.9766 26.1758 34.9062C27.7695 34.8359 28.8652 34.5781 29.8145 34.209C30.7988 33.8281 31.6367 33.3125 32.4688 32.4805C33.3008 31.6484 33.8164 30.8105 34.1973 29.8262C34.5664 28.8711 34.8242 27.7813 34.8945 26.1875C34.9648 24.5879 34.9824 24.0781 34.9824 20.0059C34.9824 15.9336 34.9648 15.4238 34.8945 13.8242C34.8242 12.2305 34.5664 11.1348 34.1973 10.1855C33.8281 9.18945 33.3184 8.35156 32.4805 7.51953C31.6484 6.6875 30.8105 6.17188 29.8262 5.79102C28.8711 5.42187 27.7813 5.16406 26.1875 5.09375C24.582 5.01758 24.0723 5 20 5Z" fill="white"/>
<path d="M20 12.2949C15.7461 12.2949 12.2949 15.7461 12.2949 20C12.2949 24.2539 15.7461 27.7051 20 27.7051C24.2539 27.7051 27.7051 24.2539 27.7051 20C27.7051 15.7461 24.2539 12.2949 20 12.2949ZM20 24.998C17.2402 24.998 15.002 22.7598 15.002 20C15.002 17.2402 17.2402 15.002 20 15.002C22.7598 15.002 24.998 17.2402 24.998 20C24.998 22.7598 22.7598 24.998 20 24.998Z" fill="white"/>
<path d="M29.8086 11.9902C29.8086 12.9863 29 13.7891 28.0098 13.7891C27.0137 13.7891 26.2109 12.9805 26.2109 11.9902C26.2109 10.9941 27.0195 10.1914 28.0098 10.1914C29 10.1914 29.8086 11 29.8086 11.9902Z" fill="white"/>
</g>
<defs>
<clipPath id="clip0_177_804">
<rect width="30" height="30" fill="white" transform="translate(5 5)"/>
</clipPath>
</defs>
</svg>
