<svg width="114" height="63" viewBox="0 0 114 63" fill="none" xmlns="http://www.w3.org/2000/svg">
<path d="M10.512 30.432C8.328 30.432 6.6 30.048 5.328 29.28C4.056 28.512 3.144 27.408 2.592 25.968C2.04 24.528 1.764 22.812 1.764 20.82V9.984C1.764 7.968 2.04 6.252 2.592 4.836C3.144 3.42 4.056 2.34 5.328 1.596C6.6 0.827999 8.328 0.443999 10.512 0.443999C12.72 0.443999 14.46 0.827999 15.732 1.596C17.028 2.34 17.952 3.42 18.504 4.836C19.056 6.252 19.332 7.968 19.332 9.984V20.82C19.332 22.812 19.056 24.528 18.504 25.968C17.952 27.408 17.028 28.512 15.732 29.28C14.46 30.048 12.72 30.432 10.512 30.432ZM10.512 25.86C11.184 25.86 11.676 25.692 11.988 25.356C12.3 25.02 12.504 24.588 12.6 24.06C12.696 23.532 12.744 22.992 12.744 22.44V8.4C12.744 7.824 12.696 7.284 12.6 6.78C12.504 6.252 12.3 5.82 11.988 5.484C11.676 5.148 11.184 4.98 10.512 4.98C9.888 4.98 9.42 5.148 9.108 5.484C8.796 5.82 8.592 6.252 8.496 6.78C8.4 7.284 8.352 7.824 8.352 8.4V22.44C8.352 22.992 8.388 23.532 8.46 24.06C8.556 24.588 8.748 25.02 9.036 25.356C9.348 25.692 9.84 25.86 10.512 25.86ZM31.6777 30.432C29.4458 30.432 27.6938 30.072 26.4218 29.352C25.1738 28.608 24.2978 27.54 23.7938 26.148C23.2898 24.732 23.0378 23.004 23.0378 20.964V0.839998H29.4098V21.936C29.4098 22.536 29.4578 23.136 29.5538 23.736C29.6498 24.336 29.8538 24.828 30.1658 25.212C30.5018 25.596 31.0058 25.788 31.6777 25.788C32.3738 25.788 32.8778 25.596 33.1898 25.212C33.5018 24.828 33.6938 24.336 33.7658 23.736C33.8618 23.136 33.9098 22.536 33.9098 21.936V0.839998H40.3178V20.964C40.3178 23.004 40.0538 24.732 39.5258 26.148C39.0218 27.54 38.1458 28.608 36.8978 29.352C35.6498 30.072 33.9098 30.432 31.6777 30.432ZM47.0458 30V5.628H42.6538V0.839998H57.8818V5.628H53.5258V30H47.0458ZM87.2229 30.432C85.0389 30.432 83.3109 30.048 82.0389 29.28C80.7669 28.512 79.8549 27.408 79.3029 25.968C78.7509 24.528 78.4749 22.812 78.4749 20.82V9.984C78.4749 7.968 78.7509 6.252 79.3029 4.836C79.8549 3.42 80.7669 2.34 82.0389 1.596C83.3109 0.827999 85.0389 0.443999 87.2229 0.443999C89.4309 0.443999 91.1709 0.827999 92.4429 1.596C93.7389 2.34 94.6629 3.42 95.2149 4.836C95.7669 6.252 96.0429 7.968 96.0429 9.984V20.82C96.0429 22.812 95.7669 24.528 95.2149 25.968C94.6629 27.408 93.7389 28.512 92.4429 29.28C91.1709 30.048 89.4309 30.432 87.2229 30.432ZM87.2229 25.86C87.8949 25.86 88.3869 25.692 88.6989 25.356C89.0109 25.02 89.2149 24.588 89.3109 24.06C89.4069 23.532 89.4549 22.992 89.4549 22.44V8.4C89.4549 7.824 89.4069 7.284 89.3109 6.78C89.2149 6.252 89.0109 5.82 88.6989 5.484C88.3869 5.148 87.8949 4.98 87.2229 4.98C86.5989 4.98 86.1309 5.148 85.8189 5.484C85.5069 5.82 85.3029 6.252 85.2069 6.78C85.1109 7.284 85.0629 7.824 85.0629 8.4V22.44C85.0629 22.992 85.0989 23.532 85.1709 24.06C85.2669 24.588 85.4589 25.02 85.7469 25.356C86.0589 25.692 86.5509 25.86 87.2229 25.86ZM99.9647 30V0.839998H112.565V5.196H106.409V12.54H111.773V17.04H106.409V30H99.9647Z" fill="#E4023B"/>
<path d="M104.1 32.568C105.924 32.568 107.448 32.892 108.672 33.54C109.896 34.188 110.82 35.184 111.444 36.528C112.068 37.896 112.416 39.66 112.488 41.82L106.98 42.648C106.956 41.4 106.848 40.392 106.656 39.624C106.44 38.856 106.152 38.304 105.792 37.968C105.408 37.632 104.952 37.464 104.424 37.464C103.752 37.464 103.32 37.692 103.128 38.148C102.912 38.604 102.804 39.084 102.804 39.588C102.804 40.788 103.092 41.796 103.668 42.612C104.244 43.452 105.024 44.292 106.008 45.132L108.528 47.328C109.632 48.264 110.568 49.32 111.336 50.496C112.08 51.696 112.452 53.172 112.452 54.924C112.452 57.396 111.72 59.28 110.256 60.576C108.792 61.896 106.8 62.556 104.28 62.556C102.72 62.556 101.472 62.292 100.536 61.764C99.576 61.236 98.856 60.54 98.376 59.676C97.872 58.836 97.536 57.936 97.368 56.976C97.176 56.04 97.068 55.14 97.044 54.276L102.588 53.592C102.612 54.456 102.672 55.2 102.768 55.824C102.84 56.472 103.008 56.964 103.272 57.3C103.536 57.66 103.944 57.84 104.496 57.84C105.096 57.84 105.54 57.588 105.828 57.084C106.092 56.58 106.224 56.076 106.224 55.572C106.224 54.492 105.972 53.604 105.468 52.908C104.94 52.236 104.256 51.528 103.416 50.784L101.004 48.66C99.732 47.58 98.664 46.356 97.8 44.988C96.912 43.62 96.468 41.928 96.468 39.912C96.468 38.544 96.78 37.296 97.404 36.168C98.028 35.064 98.916 34.188 100.068 33.54C101.196 32.892 102.54 32.568 104.1 32.568ZM93.3478 33V62.16H80.2438V57.768H86.9038V50.532H81.8278V46.068H86.9038V37.356H80.1718V33H93.3478ZM78.6502 33L73.1422 62.16H65.7982L60.3622 33H66.3022L67.2742 39.156H71.5582L72.5662 33H78.6502ZM70.9822 43.008H67.8862L69.4342 54.384L70.9822 43.008ZM49.9594 32.568C51.7834 32.568 53.3074 32.892 54.5314 33.54C55.7554 34.188 56.6794 35.184 57.3034 36.528C57.9274 37.896 58.2754 39.66 58.3474 41.82L52.8394 42.648C52.8154 41.4 52.7074 40.392 52.5154 39.624C52.2994 38.856 52.0114 38.304 51.6514 37.968C51.2674 37.632 50.8114 37.464 50.2834 37.464C49.6114 37.464 49.1794 37.692 48.9874 38.148C48.7714 38.604 48.6634 39.084 48.6634 39.588C48.6634 40.788 48.9514 41.796 49.5274 42.612C50.1034 43.452 50.8834 44.292 51.8674 45.132L54.3874 47.328C55.4914 48.264 56.4274 49.32 57.1954 50.496C57.9394 51.696 58.3114 53.172 58.3114 54.924C58.3114 57.396 57.5794 59.28 56.1154 60.576C54.6514 61.896 52.6594 62.556 50.1394 62.556C48.5794 62.556 47.3314 62.292 46.3954 61.764C45.4354 61.236 44.7154 60.54 44.2354 59.676C43.7314 58.836 43.3954 57.936 43.2274 56.976C43.0354 56.04 42.9274 55.14 42.9034 54.276L48.4474 53.592C48.4714 54.456 48.5314 55.2 48.6274 55.824C48.6994 56.472 48.8674 56.964 49.1314 57.3C49.3954 57.66 49.8034 57.84 50.3554 57.84C50.9554 57.84 51.3994 57.588 51.6874 57.084C51.9514 56.58 52.0834 56.076 52.0834 55.572C52.0834 54.492 51.8314 53.604 51.3274 52.908C50.7994 52.236 50.1154 51.528 49.2754 50.784L46.8634 48.66C45.5914 47.58 44.5234 46.356 43.6594 44.988C42.7714 43.62 42.3274 41.928 42.3274 39.912C42.3274 38.544 42.6394 37.296 43.2634 36.168C43.8874 35.064 44.7754 34.188 45.9274 33.54C47.0554 32.892 48.3994 32.568 49.9594 32.568ZM30.8552 32.568C33.0392 32.568 34.7672 32.952 36.0392 33.72C37.3112 34.488 38.2232 35.592 38.7752 37.032C39.3272 38.472 39.6032 40.188 39.6032 42.18V53.016C39.6032 55.032 39.3272 56.748 38.7752 58.164C38.2232 59.58 37.3112 60.66 36.0392 61.404C34.7672 62.172 33.0392 62.556 30.8552 62.556C28.6472 62.556 26.9072 62.172 25.6352 61.404C24.3392 60.66 23.4152 59.58 22.8632 58.164C22.3112 56.748 22.0352 55.032 22.0352 53.016V42.18C22.0352 40.188 22.3112 38.472 22.8632 37.032C23.4152 35.592 24.3392 34.488 25.6352 33.72C26.9072 32.952 28.6472 32.568 30.8552 32.568ZM30.8552 37.14C30.1832 37.14 29.6912 37.308 29.3792 37.644C29.0672 37.98 28.8632 38.412 28.7672 38.94C28.6712 39.468 28.6232 40.008 28.6232 40.56V54.6C28.6232 55.176 28.6712 55.716 28.7672 56.22C28.8632 56.748 29.0672 57.18 29.3792 57.516C29.6912 57.852 30.1832 58.02 30.8552 58.02C31.4792 58.02 31.9472 57.852 32.2592 57.516C32.5712 57.18 32.7752 56.748 32.8712 56.22C32.9672 55.716 33.0152 55.176 33.0152 54.6V40.56C33.0152 40.008 32.9792 39.468 32.9072 38.94C32.8112 38.412 32.6192 37.98 32.3312 37.644C32.0192 37.308 31.5272 37.14 30.8552 37.14ZM18.1134 33V62.16H13.5774L7.60144 48.12V62.16H2.27344V33H6.62944L12.6054 48.12V33H18.1134Z" fill="#E4023B"/>
</svg>
