<svg width="39" height="39" viewBox="0 0 39 39" fill="none" xmlns="http://www.w3.org/2000/svg">
<path d="M19.2838 0C8.6339 0 0 8.63366 0 19.2836C0 29.934 8.6339 38.567 19.2838 38.567C29.9349 38.567 38.5679 29.934 38.5679 19.2836C38.5679 8.63436 29.9349 0.000921091 19.2836 0.000921091L19.2838 0ZM28.1273 27.8125C27.7819 28.379 27.0404 28.5586 26.4739 28.2109C21.9463 25.4453 16.2465 24.8189 9.53404 26.3526C8.8872 26.4999 8.24243 26.0947 8.09505 25.4476C7.94699 24.8005 8.35066 24.1557 8.99911 24.0084C16.3449 22.3294 22.6458 23.0527 27.7289 26.1591C28.2954 26.5068 28.475 27.246 28.1273 27.8125ZM30.4876 22.5611C30.0524 23.2692 29.1267 23.4926 28.4197 23.0573C23.2363 19.8706 15.3349 18.9479 9.20382 20.8089C8.40869 21.0491 7.56888 20.601 7.32755 19.8073C7.08807 19.0121 7.53641 18.1739 8.33016 17.9321C15.3335 15.8072 24.0399 16.8365 29.9925 20.4944C30.6994 20.9296 30.9228 21.8551 30.4876 22.5611ZM30.6902 17.0935C24.4751 13.402 14.221 13.0625 8.2871 14.8635C7.33423 15.1525 6.32655 14.6146 6.03779 13.6617C5.74902 12.7084 6.28648 11.7014 7.24005 11.4117C14.0518 9.34383 25.3755 9.74336 32.531 13.9912C33.39 14.4999 33.6709 15.6068 33.162 16.4628C32.6554 17.3198 31.5455 17.6024 30.6912 17.0935H30.6902Z" fill="black"/>
</svg>
