<svg width="40" height="40" viewBox="0 0 40 40" fill="none" xmlns="http://www.w3.org/2000/svg">
<circle cx="20" cy="20" r="20" fill="black"/>
<path d="M34.7012 14C34.7012 14 34.4082 11.9316 33.5059 11.0234C32.3633 9.82813 31.0859 9.82227 30.5 9.75195C26.3047 9.44727 20.0059 9.44727 20.0059 9.44727H19.9941C19.9941 9.44727 13.6953 9.44727 9.5 9.75195C8.91406 9.82227 7.63672 9.82813 6.49414 11.0234C5.5918 11.9316 5.30469 14 5.30469 14C5.30469 14 5 16.4316 5 18.8574V21.1309C5 23.5566 5.29883 25.9883 5.29883 25.9883C5.29883 25.9883 5.5918 28.0566 6.48828 28.9648C7.63086 30.1602 9.13086 30.1191 9.79883 30.248C12.2012 30.4766 20 30.5469 20 30.5469C20 30.5469 26.3047 30.5352 30.5 30.2363C31.0859 30.166 32.3633 30.1602 33.5059 28.9648C34.4082 28.0566 34.7012 25.9883 34.7012 25.9883C34.7012 25.9883 35 23.5625 35 21.1309V18.8574C35 16.4316 34.7012 14 34.7012 14ZM16.9004 23.8906V15.459L25.0039 19.6895L16.9004 23.8906Z" fill="white"/>
</svg>
